PathFileType	4	(X/Y/Z) flx_0kg_1.trc																										
DataRate	CameraRate	NumFrames	NumMarkers	Units	OrigDataRate	OrigDataStartFrame	OrigNumFrames																					
100	100	34	9	mm	100	1	794																					
Frame#	Time	gu			centelbow			EpL			centpxt8			centijc7			ij			ts			aa			ai		
		X1	Y1	Z1	X2	Y2	Z2	X3	Y3	Z3	X4	Y4	Z4	X5	Y5	Z5	X6	Y6	Z6	X7	Y7	Z7	X8	Y8	Z8	X9	Y9	Z9  
0	0	-80.285	-17.057	166.835	-112.429	-261.379	182.894	-95.881	-257.717	210.32	-46.816	-153.158	-8.669	-46.816	31.938	-8.669	0	0	0	-136.669	25.119	50.045	-111.76	19.443	166.545	-150.674	-87.493	52.889
1	0.01	-80.493	-16.966	166.833	-112.664	-261.286	182.854	-96.131	-257.628	210.289	-46.816	-153.158	-8.669	-46.816	31.938	-8.669	0	0	0	-136.688	25.231	50.18	-111.792	19.564	166.683	-150.684	-87.382	53.029
2	0.02	-80.665	-16.855	166.846	-112.863	-261.174	182.839	-96.345	-257.518	210.283	-46.816	-153.158	-8.669	-46.816	31.938	-8.669	0	0	0	-136.697	25.317	50.27	-111.813	19.664	166.776	-150.689	-87.296	53.13
3	0.03	-80.681	-16.841	166.833	-112.9	-261.158	182.813	-96.39	-257.504	210.262	-46.816	-153.158	-8.669	-46.816	31.938	-8.669	0	0	0	-136.648	25.302	50.259	-111.765	19.66	166.766	-150.643	-87.31	53.131
4	0.04	-80.602	-16.926	166.808	-112.841	-261.241	182.773	-96.332	-257.59	210.224	-46.816	-153.158	-8.669	-46.816	31.938	-8.669	0	0	0	-136.579	25.222	50.203	-111.689	19.582	166.709	-150.579	-87.39	53.079
5	0.05	-80.544	-17.001	166.852	-112.795	-261.318	182.78	-96.285	-257.671	210.231	-46.816	-153.158	-8.669	-46.816	31.938	-8.669	0	0	0	-136.566	25.126	50.173	-111.667	19.485	166.676	-150.568	-87.485	53.048
6	0.06	-80.526	-17.02	166.954	-112.763	-261.342	182.823	-96.253	-257.701	210.275	-46.816	-153.158	-8.669	-46.816	31.938	-8.669	0	0	0	-136.625	25.036	50.206	-111.72	19.391	166.708	-150.628	-87.575	53.078
7	0.07	-80.51	-17.037	167.026	-112.724	-261.367	182.832	-96.213	-257.732	210.284	-46.816	-153.158	-8.669	-46.816	31.938	-8.669	0	0	0	-136.701	24.962	50.299	-111.79	19.306	166.8	-150.708	-87.649	53.163
8	0.08	-80.483	-17.106	167.036	-112.696	-261.438	182.792	-96.182	-257.81	210.242	-46.816	-153.158	-8.669	-46.816	31.938	-8.669	0	0	0	-136.736	24.906	50.375	-111.814	19.238	166.872	-150.752	-87.704	53.23
9	0.09	-80.444	-17.183	167.019	-112.682	-261.514	182.748	-96.165	-257.89	210.198	-46.816	-153.158	-8.669	-46.816	31.938	-8.669	0	0	0	-136.74	24.902	50.364	-111.804	19.235	166.858	-150.758	-87.707	53.223
10	0.1	-80.397	-17.2	167.024	-112.659	-261.528	182.746	-96.143	-257.907	210.197	-46.816	-153.158	-8.669	-46.816	31.938	-8.669	0	0	0	-136.765	24.973	50.304	-111.821	19.325	166.797	-150.764	-87.639	53.177
11	0.11	-80.357	-17.167	167.05	-112.632	-261.493	182.779	-96.12	-257.871	210.231	-46.816	-153.158	-8.669	-46.816	31.938	-8.669	0	0	0	-136.823	25.043	50.26	-111.884	19.417	166.755	-150.798	-87.571	53.149
12	0.12	-80.334	-17.142	167.064	-112.62	-261.466	182.804	-96.109	-257.843	210.258	-46.816	-153.158	-8.669	-46.816	31.938	-8.669	0	0	0	-136.872	25.024	50.25	-111.945	19.407	166.749	-150.846	-87.59	53.147
13	0.13	-80.311	-17.156	167.05	-112.61	-261.477	182.801	-96.097	-257.854	210.254	-46.816	-153.158	-8.669	-46.816	31.938	-8.669	0	0	0	-136.88	24.925	50.261	-111.962	19.305	166.762	-150.876	-87.687	53.158
14	0.14	-80.269	-17.207	167.012	-112.57	-261.527	182.772	-96.053	-257.904	210.222	-46.816	-153.158	-8.669	-46.816	31.938	-8.669	0	0	0	-136.851	24.808	50.262	-111.927	19.184	166.761	-150.866	-87.801	53.16
15	0.15	-80.217	-17.263	166.972	-112.506	-261.584	182.742	-95.985	-257.96	210.189	-46.816	-153.158	-8.669	-46.816	31.938	-8.669	0	0	0	-136.788	24.722	50.22	-111.841	19.103	166.714	-150.807	-87.887	53.127
16	0.16	-80.178	-17.29	166.946	-112.455	-261.612	182.731	-95.929	-257.986	210.175	-46.816	-153.158	-8.669	-46.816	31.938	-8.669	0	0	0	-136.69	24.696	50.147	-111.714	19.087	166.635	-150.695	-87.914	53.064
17	0.17	-80.169	-17.273	166.925	-112.435	-261.595	182.724	-95.907	-257.967	210.167	-46.816	-153.158	-8.669	-46.816	31.938	-8.669	0	0	0	-136.601	24.754	50.084	-111.612	19.159	166.57	-150.579	-87.859	53.009
18	0.18	-80.197	-17.194	166.906	-112.444	-261.519	182.712	-95.917	-257.889	210.155	-46.816	-153.158	-8.669	-46.816	31.938	-8.669	0	0	0	-136.607	24.888	50.066	-111.618	19.303	166.553	-150.554	-87.729	52.995
19	0.19	-80.23	-17.067	166.933	-112.451	-261.395	182.741	-95.929	-257.762	210.186	-46.816	-153.158	-8.669	-46.816	31.938	-8.669	0	0	0	-136.682	25.029	50.115	-111.696	19.447	166.603	-150.611	-87.59	53.044
20	0.2	-80.222	-16.95	167.042	-112.417	-261.281	182.855	-95.898	-257.645	210.302	-46.816	-153.158	-8.669	-46.816	31.938	-8.669	0	0	0	-136.707	25.113	50.223	-111.722	19.532	166.711	-150.637	-87.506	53.152
21	0.21	-80.186	-16.908	167.149	-112.36	-261.242	182.973	-95.845	-257.603	210.422	-46.816	-153.158	-8.669	-46.816	31.938	-8.669	0	0	0	-136.669	25.128	50.314	-111.687	19.549	166.803	-150.604	-87.49	53.246
22	0.22	-80.177	-16.944	167.144	-112.337	-261.278	182.983	-95.824	-257.636	210.432	-46.816	-153.158	-8.669	-46.816	31.938	-8.669	0	0	0	-136.641	25.103	50.33	-111.664	19.531	166.82	-150.577	-87.515	53.267
23	0.23	-80.183	-16.986	167.065	-112.341	-261.319	182.923	-95.828	-257.675	210.372	-46.816	-153.158	-8.669	-46.816	31.938	-8.669	0	0	0	-136.635	25.095	50.329	-111.663	19.539	166.821	-150.559	-87.524	53.278
24	0.24	-80.177	-16.966	167.018	-112.342	-261.298	182.895	-95.827	-257.652	210.343	-46.816	-153.158	-8.669	-46.816	31.938	-8.669	0	0	0	-136.644	25.121	50.39	-111.681	19.591	166.885	-150.55	-87.5	53.359
25	0.25	-80.184	-16.894	167.043	-112.361	-261.224	182.924	-95.845	-257.578	210.372	-46.816	-153.158	-8.669	-46.816	31.938	-8.669	0	0	0	-136.721	25.158	50.474	-111.763	19.651	166.971	-150.612	-87.464	53.462
26	0.26	-80.207	-16.829	167.141	-112.391	-261.158	183.011	-95.877	-257.514	210.46	-46.816	-153.158	-8.669	-46.816	31.938	-8.669	0	0	0	-136.857	25.188	50.522	-111.898	19.688	167.02	-150.747	-87.434	53.518
27	0.27	-80.199	-16.791	167.231	-112.373	-261.122	183.093	-95.864	-257.478	210.544	-46.816	-153.158	-8.669	-46.816	31.938	-8.669	0	0	0	-136.956	25.184	50.533	-111.996	19.679	167.03	-150.856	-87.437	53.526
28	0.28	-80.148	-16.749	167.2	-112.288	-261.083	183.079	-95.782	-257.434	210.531	-46.816	-153.158	-8.669	-46.816	31.938	-8.669	0	0	0	-136.965	25.116	50.486	-112.002	19.611	166.982	-150.873	-87.504	53.48
29	0.29	-80.062	-16.697	167.119	-112.162	-261.034	183.024	-95.658	-257.379	210.478	-46.816	-153.158	-8.669	-46.816	31.938	-8.669	0	0	0	-136.901	25.027	50.402	-111.927	19.536	166.897	-150.806	-87.593	53.411
30	0.3	-79.938	-16.661	167.141	-112.018	-261.001	183.056	-95.519	-257.343	210.512	-46.816	-153.158	-8.669	-46.816	31.938	-8.669	0	0	0	-136.797	25.028	50.383	-111.811	19.557	166.876	-150.692	-87.593	53.411
31	0.31	-79.826	-16.647	167.233	-111.919	-260.986	183.135	-95.423	-257.33	210.593	-46.816	-153.158	-8.669	-46.816	31.938	-8.669	0	0	0	-136.679	25.153	50.445	-111.69	19.696	166.938	-150.565	-87.468	53.485
32	0.32	-79.794	-16.646	167.261	-111.905	-260.984	183.141	-95.411	-257.331	210.601	-46.816	-153.158	-8.669	-46.816	31.938	-8.669	0	0	0	-136.567	25.316	50.493	-111.586	19.863	166.987	-150.446	-87.307	53.533
33	0.33	-79.806	-16.655	167.243	-111.92	-260.994	183.1	-95.431	-257.343	210.563	-46.816	-153.158	-8.669	-46.816	31.938	-8.669	0	0	0	-136.473	25.422	50.483	-111.508	19.97	166.981	-150.339	-87.202	53.519
